<?xml version="1.0" encoding="UTF-8" standalone="no"?>
<!-- Created with Inkscape (http://www.inkscape.org/) -->

<svg
   width="126.43005mm"
   height="64.094414mm"
   viewBox="0 0 126.43005 64.094414"
   version="1.1"
   id="svg1"
   xml:space="preserve"
   inkscape:version="1.3.2 (091e20e, 2023-11-25, custom)"
   sodipodi:docname="foliage logo.svg"
   xmlns:inkscape="http://www.inkscape.org/namespaces/inkscape"
   xmlns:sodipodi="http://sodipodi.sourceforge.net/DTD/sodipodi-0.dtd"
   xmlns="http://www.w3.org/2000/svg"
   xmlns:svg="http://www.w3.org/2000/svg"><sodipodi:namedview
     id="namedview1"
     pagecolor="#ffffff"
     bordercolor="#000000"
     borderopacity="0.25"
     inkscape:showpageshadow="2"
     inkscape:pageopacity="0.0"
     inkscape:pagecheckerboard="0"
     inkscape:deskcolor="#d1d1d1"
     inkscape:document-units="mm"
     inkscape:zoom="0.71713664"
     inkscape:cx="238.44828"
     inkscape:cy="120.61857"
     inkscape:window-width="1216"
     inkscape:window-height="861"
     inkscape:window-x="462"
     inkscape:window-y="71"
     inkscape:window-maximized="0"
     inkscape:current-layer="layer1" /><defs
     id="defs1" /><g
     inkscape:label="Calque 1"
     inkscape:groupmode="layer"
     id="layer1"
     transform="translate(-41.934045,-116.45279)"><path
       d="m 42.062089,180.30585 c -0.385203,-0.62324 0.124244,-1.11409 1.185321,-1.14203 1.446647,-0.0381 8.650726,-2.99664 11.218215,-4.60688 0.272836,-0.17113 0.942569,-0.59181 1.488266,-0.93484 0.545698,-0.34303 1.206593,-0.73704 1.468687,-0.87555 0.754187,-0.39862 0.704419,-0.74559 -0.111111,-0.77467 -0.794218,-0.0283 -1.301577,-0.34422 -0.826841,-0.51487 0.155471,-0.0559 1.173865,-0.96146 2.263117,-2.0124 1.089225,-1.05094 2.468907,-2.34762 3.065959,-2.88155 1.053587,-0.94222 1.063614,-0.96495 0.341362,-0.7735 -2.052801,0.54414 -3.776094,0.55951 -2.170381,0.0194 0.569537,-0.19158 1.940064,-1.47985 3.166236,-2.976 0.540697,-0.65986 1.542452,-1.75322 2.226075,-2.4297 l 1.243,-1.22993 -1.054195,0.17139 c -1.333063,0.21672 -1.320707,0.10921 0.150998,-1.31245 0.662854,-0.64034 2.223509,-2.14779 3.468123,-3.34985 1.295836,-1.2516 2.026343,-2.10977 1.709322,-2.00807 -3.480557,1.11664 -3.313607,0.59867 1.058666,-3.28556 1.276655,-1.13412 3.420763,-2.37977 3.748049,-2.17752 0.121421,0.075 0.220768,0.0127 0.220768,-0.13856 0,-0.18946 -0.462936,-0.22262 -1.488265,-0.10662 -2.660887,0.30104 0.173094,-2.52092 3.883249,-3.86658 0.693016,-0.25138 0.949394,-0.35655 2.441999,-1.0017 l 0.744133,-0.32165 -0.744133,-0.17599 c -0.40928,-0.0968 -1.106899,-0.1892 -1.550283,-0.20534 -0.936139,-0.0341 -1.06372,-0.51691 -0.246108,-0.93145 0.305882,-0.1551 1.647993,-0.85272 2.982352,-1.55029 1.334359,-0.69756 2.64607,-1.26829 2.91462,-1.26829 0.268522,0 0.48823,-0.10181 0.48823,-0.22624 0,-0.12444 0.446956,-0.30176 0.993236,-0.39404 1.38709,-0.23435 1.038955,-0.53046 -0.863142,-0.73416 -3.259368,-0.34904 -0.0083,-2.2496 6.443066,-3.76657 0.697435,-0.164 0.662404,-0.19001 -0.558106,-0.41433 -1.318035,-0.24227 -1.860451,-0.91058 -0.744133,-0.91688 0.306967,-0.002 1.204371,-0.33091 1.99425,-0.73149 1.672731,-0.84835 3.875311,-1.64598 5.199008,-1.8827 1.29028,-0.23076 1.16389,-0.50408 -0.450052,-0.97326 -2.761956,-0.80289 2.160883,-3.34086 6.513974,-3.35832 1.47295,-0.006 1.83682,-0.39317 0.67309,-0.71627 -0.53355,-0.14814 -1.10962,-0.26998 -1.28014,-0.27072 -0.3543,-0.002 -0.41712,-0.40203 -0.0944,-0.6015 0.11862,-0.0733 0.81625,-0.20274 1.55028,-0.28762 0.73402,-0.0849 2.11593,-0.3342 3.07099,-0.55406 0.95497,-0.21985 2.50237,-0.38296 3.43875,-0.36245 l 1.70236,0.0373 -1.02022,-0.7503 c -1.3079,-0.96182 -1.28374,-1.13259 0.15798,-1.11645 0.64801,0.007 2.41514,-0.0808 3.9269,-0.19568 1.93287,-0.14688 3.14772,-0.12072 4.0928,0.0881 2.33357,0.51569 2.46017,0.53104 2.46017,0.29824 0,-0.12533 -0.44648,-0.82208 -0.99217,-1.54833 -1.2316,-1.6391 -0.41712,-2.4751 1.15015,-1.18051 0.25961,0.21444 0.96776,0.39825 5.17494,1.34323 0.81856,0.18385 1.87894,0.4455 2.3564,0.58141 1.33735,0.38071 3.03659,0.79411 3.72159,0.90548 4.22959,0.68738 9.53523,2.11275 13.26952,3.56496 3.74275,1.4554 3.18581,1.31491 6.40496,1.61542 1.40263,0.13093 4.0256,-0.37243 6.19516,-1.18887 0.84615,-0.31845 2.15239,-0.78027 2.90271,-1.02633 0.75033,-0.24605 2.00875,-0.75596 2.79662,-1.13317 0.78773,-0.37722 1.74673,-0.75491 2.13114,-0.83933 l 0.69889,-0.15351 -0.2708,1.61296 c -0.31932,1.90192 -0.30773,1.88877 -2.37919,2.69661 -9.37647,3.6565 -9.42171,3.67899 -11.63122,5.81971 -2.60252,2.5213 -3.61258,4.68414 -4.37299,9.3643 -0.39121,2.40793 -1.90651,8.21391 -2.46002,9.42569 -0.18694,0.40928 -0.63925,1.46966 -1.00514,2.3564 -1.15889,2.80879 -1.60312,3.19481 -2.11786,1.84098 -0.32215,-0.84734 -0.93087,-0.51466 -1.57923,0.86312 -2.80429,5.95888 -5.11064,8.53246 -5.11064,5.70224 0,-1.47054 -0.28138,-1.54574 -1.01004,-0.26995 -0.72505,1.26953 -5.68028,6.49809 -6.15837,6.49809 -0.3357,0 -0.3629,-2.04555 -0.0421,-3.16412 0.3149,-1.09798 0.22696,-1.0357 -1.05298,0.74578 -1.37201,1.90961 -2.27989,2.77148 -4.51084,4.28197 -0.95497,0.64658 -2.0025,1.38479 -2.32786,1.64045 -1.10951,0.87182 -1.45503,0.31424 -0.76305,-1.23136 l 0.46067,-1.02892 -1.28936,0.96315 c -0.70913,0.52974 -1.84746,1.25689 -2.52957,1.61593 -0.68212,0.35903 -1.74251,0.97606 -2.35641,1.37116 -1.26729,0.81562 -3.31731,1.34674 -2.8035,0.72635 0.16339,-0.1973 0.40362,-0.83293 0.53385,-1.41249 l 0.23676,-1.05377 -1.15394,0.66672 c -0.63468,0.36668 -1.9911,1.249 -3.01437,1.96067 -3.73376,2.59712 -5.07756,2.65507 -3.74302,0.1614 0.14586,-0.27252 -1.36359,0.38203 -4.02691,1.74623 -4.863787,2.49137 -5.352203,2.59702 -4.634925,1.00266 0.545274,-1.21176 0.548449,-1.20834 -0.541385,-0.58502 -0.721749,0.4128 -4.867489,1.99425 -7.057422,2.69211 -1.188496,0.37875 -1.414077,0.0568 -0.698228,-0.99665 0.600809,-0.88415 0.386817,-1.06232 -0.505905,-0.42126 -2.403661,1.72607 -7.988481,2.64924 -6.78702,1.12203 l 0.544983,-0.69283 -0.599619,0.18604 c -0.329773,0.10232 -1.118514,0.44677 -1.752688,0.76548 -3.207774,1.61196 -6.678278,1.85963 -5.72764,0.40878 l 0.370784,-0.56589 -1.154524,0.4949 c -1.025144,0.43944 -5.013008,1.61355 -6.364486,1.87379 -0.636289,0.12254 -0.858987,-0.41404 -0.471985,-1.1372 0.245743,-0.45917 0.235453,-0.52984 -0.0606,-0.41623 -3.203542,1.22929 -6.338292,1.85706 -7.137326,1.42934 l -0.547761,-0.29316 0.581416,-0.63861 c 0.486193,-0.53403 0.50601,-0.61145 0.121035,-0.47257 -0.675264,0.24354 -7.148968,1.3542 -10.36759,1.77872 -3.203542,0.42251 -6.8066,0.48235 -7.032552,0.11679 z m 7.318563,-1.10623 c 1.910642,-0.21165 5.215676,-0.88085 7.565416,-1.53177 1.364231,-0.37795 2.982617,-0.69256 3.596708,-0.69912 1.233898,-0.0132 1.832512,-0.27303 1.578012,-0.68482 -0.103618,-0.16766 -0.04991,-0.19724 0.142365,-0.0784 0.194033,0.11992 0.667405,-0.15939 1.273982,-0.7517 0.530881,-0.51839 1.042871,-0.86489 1.13775,-0.77003 0.250031,0.25003 -1.130474,1.62431 -2.167868,2.15807 -0.779242,0.40095 -2.489094,2.22603 -2.085477,2.22603 0.502359,0 2.770688,-0.86725 2.998227,-1.14633 0.149914,-0.18383 0.328107,-0.2787 0.395998,-0.21081 0.06788,0.0679 0.512572,-0.0392 0.988208,-0.23791 0.828349,-0.34612 1.348462,-0.7345 3.466535,-2.58855 1.35116,-1.18281 1.189475,-0.56157 -0.18313,0.70368 -1.130473,1.04202 -1.132616,1.04708 -0.372053,0.88005 0.954342,-0.20961 1.04983,0.46807 0.248608,1.76449 -0.575357,0.93095 -0.45156,1.01593 0.640338,0.43957 0.40928,-0.21604 0.911559,-0.42793 1.116213,-0.4709 0.204637,-0.043 1.153412,-0.44542 2.108389,-0.89436 0.954977,-0.44894 1.890428,-0.84253 2.078783,-0.87463 0.188358,-0.0321 0.461826,-0.17772 0.607715,-0.32361 0.626818,-0.62681 0.944447,-0.29119 0.77755,0.82163 -0.243592,1.6244 3.004841,0.71596 6.60393,-1.84677 l 0.699102,-0.49781 0.394833,0.60258 c 0.252386,0.38518 0.336309,0.83579 0.232598,1.24896 -0.271512,1.08179 4.355261,-0.64947 6.216585,-2.3262 1.094993,-0.9863 2.288225,0.2876 1.397647,1.49216 -0.661875,0.89526 -0.672273,1.22326 -0.03341,1.05618 0.272836,-0.0713 0.496089,-0.23492 0.496089,-0.36348 0,-0.12857 0.08832,-0.17917 0.196269,-0.11246 0.286143,0.17685 3.521302,-1.48165 6.333265,-3.24666 1.719482,-1.07933 2.385091,-0.29673 1.143067,1.34399 -0.801944,1.05935 -0.948654,1.57526 -0.293208,1.03101 0.238744,-0.19823 1.047977,-0.67793 1.798322,-1.06599 1.98042,-1.02425 5.41914,-3.10142 5.58874,-3.37579 0.261,-0.42232 0.92728,-0.27138 0.75728,0.17157 -0.1316,0.34295 -0.0957,0.35694 0.2275,0.0887 0.65563,-0.54414 0.73723,-0.038 0.1791,1.11081 -0.40504,0.83372 -0.44637,1.06594 -0.1708,0.96019 0.1999,-0.0767 0.36345,-0.23915 0.36345,-0.36097 0,-0.12182 0.15217,-0.2215 0.33814,-0.2215 0.42394,0 4.59365,-2.75535 5.22441,-3.45225 0.51381,-0.56776 1.3783,-0.69611 1.39021,-0.20641 0.004,0.17207 0.12005,0.11688 0.26037,-0.12402 0.13905,-0.23874 0.3589,-0.43407 0.48854,-0.43407 0.34494,0 0.28768,0.67915 -0.11051,1.31097 -0.19044,0.30215 -0.42407,0.80956 -0.51919,1.12756 l -0.17294,0.57819 1.07727,-0.64084 c 0.5925,-0.35245 1.35632,-0.78007 1.69739,-0.95024 1.18394,-0.59076 3.60041,-2.36371 4.30102,-3.15566 l 0.70439,-0.7962 0.48874,0.52459 c 0.29876,0.32069 0.43473,0.71521 0.34977,1.01503 -0.0764,0.26974 -0.20709,0.72887 -0.29038,1.02025 -0.13477,0.47151 1.19186,-0.32067 2.1358,-1.27536 0.0682,-0.069 0.54261,-0.43743 1.0542,-0.81877 0.51159,-0.38134 0.93016,-0.85507 0.93016,-1.05276 0,-0.1977 0.10007,-0.35944 0.22237,-0.35944 0.55276,0 5.14318,-8.38376 6.24516,-11.40554 0.29934,-0.82102 0.63317,-1.49276 0.74178,-1.49276 0.49947,0 -1.29497,4.42987 -3.06464,7.56542 -0.53898,0.95497 -1.25464,2.23859 -1.59037,2.85244 l -0.61041,1.11621 0.91555,-1.06205 c 1.24893,-1.44876 1.72023,-1.11923 1.47094,1.02856 l -0.17253,1.48652 1.33174,-1.144 c 1.28967,-1.10785 2.31003,-2.16935 2.08529,-2.16935 -0.0604,0 0.13998,-0.26944 0.44519,-0.59879 0.30522,-0.32935 0.71444,-0.91535 0.90939,-1.30224 1.43407,-2.8461 2.23348,-2.77519 2.77201,0.24626 0.12616,0.70796 3.35382,-5.07122 3.97956,-7.12515 0.16398,-0.5384 0.48603,-1.01663 0.72704,-1.07965 0.23796,-0.0622 0.46928,-0.29702 0.51402,-0.52175 0.0673,-0.33811 0.19546,-0.29544 0.74244,0.24725 l 0.66106,0.65586 0.51683,-1.09949 c 1.50938,-3.21095 2.54016,-6.68833 2.89372,-9.76196 0.51149,-4.44548 1.77316,-7.59055 3.93669,-9.81276 0.68212,-0.70069 1.54589,-1.61437 1.91951,-2.0304 0.77006,-0.85753 2.77598,-2.07042 5.14979,-3.11358 0.88677,-0.38975 1.94716,-0.85666 2.35641,-1.03758 0.97154,-0.42947 4.16265,-1.36854 4.65053,-1.36854 0.25337,0 0.41889,-0.3103 0.49615,-0.93016 0.14213,-1.14013 0.17161,-1.10394 -0.5811,-0.71344 -1.47022,0.76276 -6.28564,2.63578 -6.77644,2.63578 -0.29517,0 -0.97884,0.23351 -1.51928,0.51892 -1.84716,0.97548 -6.65764,0.78009 -9.10077,-0.36962 -2.40769,-1.13307 -3.76842,-1.65802 -5.52074,-2.12964 -0.95696,-0.25758 -2.68867,-0.74413 -3.84833,-1.08123 -1.1596,-0.3371 -2.61067,-0.6704 -3.22471,-0.74067 -0.6139,-0.0703 -2.06497,-0.35009 -3.2247,-0.62184 -3.04612,-0.71384 -5.97503,-1.32468 -6.7439,-1.40649 -0.36679,-0.039 -1.0048,-0.23952 -1.41778,-0.44555 -0.41298,-0.20603 -1.21027,-0.45222 -1.77174,-0.54707 l -1.02085,-0.17247 0.68878,1.07941 c 0.37882,0.59366 0.89021,1.30983 1.1364,1.59148 0.80416,0.91994 0.3362,1.03956 -1.4127,0.36107 -2.09278,-0.81189 -9.48548,-1.09095 -9.58391,-0.36174 -0.0309,0.22844 0.93688,0.8905 1.95835,1.33979 0.30795,0.13545 0.5312,0.37837 0.49609,0.53982 -0.0351,0.16145 0.21522,0.38333 0.55628,0.49305 0.43431,0.13972 0.28567,0.1653 -0.49609,0.0854 -0.61391,-0.0628 -1.48808,-0.11065 -1.94263,-0.10639 -0.45455,0.004 -0.76599,-0.0901 -0.69209,-0.20963 0.28599,-0.46273 -3.02257,-0.50069 -5.61281,-0.0644 -1.76094,0.29662 -2.62538,0.75959 -1.41828,0.75959 0.83086,0 2.22443,0.69134 2.22443,1.10353 0,0.30943 -0.32771,0.3851 -1.67429,0.38661 -1.46842,0.002 -2.49621,0.1183 -5.64298,0.64052 -0.40928,0.0679 -1.190609,0.24902 -1.736306,0.40246 -0.545697,0.15342 -1.14193,0.30757 -1.324967,0.34258 -0.671558,0.1284 -0.552761,0.31829 0.498206,0.79633 1.62889,0.74091 2.158317,1.21834 1.694903,1.5284 -0.204637,0.13693 -0.266036,0.25067 -0.136426,0.25276 0.83015,0.0134 -0.48704,0.48511 -1.708661,0.61192 -0.810172,0.0841 -1.591505,0.24784 -1.73631,0.36388 -0.144802,0.11603 -0.626051,0.28853 -1.069435,0.38333 -0.443384,0.0948 -0.80615,0.28169 -0.80615,0.41533 0,0.13364 -0.108341,0.17602 -0.240761,0.0942 -0.132417,-0.0818 -0.598507,0.0362 -1.035727,0.2623 l -0.794985,0.41111 0.83835,0.3525 c 1.073483,0.45138 1.172118,0.56102 0.743207,0.8261 -0.204984,0.12669 -0.535723,0.11867 -0.793371,-0.0192 -0.347157,-0.18579 -0.410947,-0.15594 -0.29768,0.13924 0.162418,0.42325 0.264176,0.38234 -2.75984,1.10952 -1.227812,0.29524 -2.55651,0.69836 -2.952719,0.89579 -0.39613,0.19743 -0.870523,0.35895 -1.054195,0.35895 -0.809484,0 -0.211241,0.43897 1.156667,0.84873 2.461472,0.73733 2.329791,1.00593 -0.994532,2.02872 -1.159604,0.35676 -2.554843,0.88156 -3.100619,1.16617 -0.545698,0.2846 -1.103804,0.52371 -1.240222,0.53135 -1.134812,0.0634 -1.335206,0.9889 -0.253624,1.17135 0.590015,0.0995 1.369813,0.71151 1.369813,1.07505 0,0.14406 -0.976673,0.63727 -2.170381,1.09602 -5.099526,1.95983 -6.220554,2.73206 -3.984848,2.74476 2.81355,0.0161 2.411546,0.56893 -2.038593,2.80429 -2.632603,1.32237 -3.725559,2.01065 -4.194396,2.64149 -0.56181,0.75586 -0.577553,0.82862 -0.138026,0.63812 1.048083,-0.45426 2.852443,-0.45722 2.852443,-0.005 0,0.46669 -0.935689,1.34491 -1.446515,1.35767 -0.687592,0.0172 -4.878336,3.72265 -5.079153,4.49125 -0.147472,0.56393 -0.01133,0.5815 0.820755,0.10581 0.628062,-0.35903 1.459638,-0.50878 1.159683,-0.20885 -0.08976,0.0898 -0.03479,0.31795 0.12217,0.50707 0.296331,0.35705 -0.88145,1.61079 -1.817695,1.93493 -0.500612,0.17331 -4.233818,4.36584 -4.050728,4.54893 0.07153,0.0715 0.262139,-0.002 0.423567,-0.16346 0.415524,-0.41553 1.186485,-0.36449 1.186485,0.0786 0,0.46397 -0.161315,0.48487 1.950276,-0.25287 2.18115,-0.76205 6.738074,-1.93136 6.899203,-1.77031 0.06432,0.0643 -0.53313,0.29635 -1.327692,0.51561 -3.852557,1.06317 -5.261978,1.48811 -6.375862,1.92213 -0.665764,0.25947 -1.263478,0.41875 -1.328274,0.35395 -0.103906,-0.1039 -0.513656,0.29842 -1.612169,1.58288 -0.172649,0.20188 -0.289556,0.44233 -0.259818,0.53435 0.02975,0.092 -0.369777,0.33689 -0.887826,0.54416 -0.518049,0.20728 -1.292423,0.77607 -1.720806,1.26398 -0.428382,0.48792 -0.931112,0.88712 -1.117191,0.88712 -0.18608,0 -0.338293,0.17486 -0.338293,0.38859 0,0.38882 0.03759,0.38779 1.591611,-0.0435 0.948654,-0.26328 0.669706,0.59718 -0.620124,1.91291 -0.648011,0.66103 -1.281046,1.20474 -1.406722,1.20826 -0.125681,0.004 -0.404729,0.15895 -0.620124,0.34541 -0.899097,0.77843 -7.855396,4.07534 -10.253026,4.85955 -1.950567,0.63788 -2.022321,1.02975 -0.129768,0.70863 0.720373,-0.12224 1.700432,-0.26553 2.177921,-0.31842 z m 19.347453,-1.75153 c 0,-0.0723 0.61388,-0.85512 1.364178,-1.73956 0.750297,-0.88444 1.502685,-1.82987 1.671964,-2.1009 0.320116,-0.5126 0.684522,-0.65611 0.684522,-0.26958 0,0.33501 -3.20751,4.24149 -3.482409,4.24149 -0.130996,0 -0.238175,-0.0592 -0.238175,-0.1315 z m 2.232399,-0.26648 c 0,-0.16948 2.116565,-3.00617 2.479199,-3.32261 0.07815,-0.0682 0.57033,-0.65422 1.093723,-1.30223 1.073192,-1.3287 1.721467,-1.60892 0.86076,-0.37206 -1.752079,2.51775 -4.433576,5.54005 -4.433576,4.99687 z m 5.456974,-0.6442 c 2.134292,-2.07029 4.510569,-4.19493 4.105497,-3.67079 -0.715876,0.92656 -3.661266,3.72344 -4.229585,4.01633 -0.385812,0.19889 -0.358242,0.12203 0.124022,-0.34578 z m -12.147423,-0.11069 c 0.337314,-0.2248 1.085336,-0.85964 1.66228,-1.41079 0.576945,-0.55115 1.135051,-0.91455 1.240222,-0.80758 0.286488,0.29135 -2.364636,2.6271 -2.981823,2.6271 -0.51453,0 -0.51162,-0.0149 0.07931,-0.40873 z m -8.192208,-0.15659 c 0.06821,-0.0743 1.184421,-0.48846 2.480443,-0.92042 2.587307,-0.86235 6.94524,-2.89821 6.94524,-3.24481 0,-0.12036 0.418566,-0.43045 0.930159,-0.6891 2.480866,-1.25427 3.810489,-2.09924 3.553582,-2.25809 -0.364222,-0.22511 0.294584,-0.82298 1.736363,-1.57571 0.603481,-0.31507 1.990175,-1.1422 3.081569,-1.83802 1.746444,-1.11346 4.159736,-2.20819 2.763809,-1.25374 -1.670879,1.14249 -4.433577,2.92256 -5.430252,3.49908 -1.535705,0.8882 -1.492922,1.024 0.124023,0.39367 2.303173,-0.89786 4.267419,-2.14951 10.869498,-6.92646 0.659917,-0.47748 1.818912,-1.29758 2.575533,-1.82243 0.756621,-0.52485 1.375687,-1.03694 1.375687,-1.13796 0,-0.10102 0.585993,-0.47214 1.302239,-0.82472 0.71622,-0.35258 1.525466,-0.84507 1.798328,-1.09444 0.272835,-0.24937 0.921666,-0.67664 1.441805,-0.94947 0.520165,-0.27284 1.123462,-0.69143 1.340683,-0.93016 0.21722,-0.23874 0.489712,-0.43407 0.605572,-0.43407 0.115859,0 1.122483,-0.61391 2.236975,-1.36423 1.114493,-0.75033 2.129292,-1.36423 2.2551,-1.36423 0.125811,0 0.525034,-0.20545 0.887139,-0.45656 0.362105,-0.25111 1.551368,-0.93379 2.642758,-1.51706 1.0914,-0.58326 2.59826,-1.4304 3.34854,-1.88251 4.68122,-2.8207 9.78604,-5.27415 16.75826,-8.05437 3.12946,-1.24781 6.04355,-2.42805 6.47614,-2.62273 0.43249,-0.19469 1.13011,-0.42275 1.55029,-0.50678 0.42015,-0.084 0.76395,-0.22611 0.76395,-0.31572 0,-0.0896 0.28278,-0.18634 0.62837,-0.21495 0.3456,-0.0286 0.93162,-0.20872 1.30224,-0.40025 1.19596,-0.61812 5.57207,-2.27315 7.86704,-2.97521 1.22781,-0.37565 4.26822,-1.35235 6.75633,-2.17049 4.20102,-1.38127 4.5627,-1.46038 5.06566,-1.10804 0.5198,0.36407 0.52242,0.38579 0.0648,0.53581 -0.26231,0.086 -0.97921,0.3593 -1.59312,0.60734 -0.61391,0.24804 -1.56267,0.52498 -2.10839,0.61541 -0.90108,0.14934 -6.61849,1.91078 -11.65795,3.59169 l -1.98436,0.66184 -1.26308,1.88578 c -1.73078,2.58405 -3.96447,8.34566 -5.29214,13.65024 -1.05414,4.21185 -3.44298,8.68618 -6.08905,11.40448 -1.43887,1.47818 -1.53473,1.07917 -0.14899,-0.62013 1.61582,-1.98141 1.50821,-1.83428 2.40374,-3.28662 1.99081,-3.22841 2.56868,-4.67249 3.42473,-8.55759 0.22545,-1.02319 0.56689,-2.1952 0.75874,-2.60448 0.19186,-0.40928 0.69651,-1.86032 1.12145,-3.22471 0.88454,-2.83974 2.07479,-5.32812 3.34324,-6.98942 1.14415,-1.49845 1.19405,-1.49483 -2.24317,-0.163 -1.62844,0.63097 -3.51892,1.34941 -4.20101,1.5965 -1.39664,0.50593 -5.02597,1.84447 -6.29093,2.32008 -2.0577,0.77374 -5.12757,6.3285 -6.58621,11.91724 -0.32046,1.22781 -0.76955,2.67888 -0.99799,3.22471 -0.22844,0.5457 -0.68098,1.78253 -1.00562,2.74846 -0.748,2.22565 -3.20063,6.3494 -4.98417,8.38006 -1.09269,1.24416 -0.9259,0.50879 0.22623,-0.99739 1.58124,-2.06717 4.38383,-7.2413 4.38383,-8.09352 0,-0.19933 0.21557,-0.85099 0.47905,-1.44815 0.26347,-0.59716 0.77808,-2.20192 1.14355,-3.56628 0.36546,-1.36437 0.88256,-2.96886 1.14907,-3.56549 0.26651,-0.59663 0.70918,-1.65495 0.98368,-2.35144 0.41767,-1.05964 2.06408,-3.81736 3.03474,-5.08338 0.18655,-0.2433 -0.0111,-0.22023 -0.72434,0.0845 -0.53948,0.23051 -1.14831,0.47894 -1.35296,0.55207 -0.35107,0.12546 -2.02878,0.87129 -3.96871,1.7643 -1.14841,0.52866 -7.09658,3.85891 -8.29592,4.64472 -0.79216,0.51902 -2.45724,2.94795 -3.32631,4.85214 -1.450481,3.17867 -1.825735,4.08777 -2.188925,5.30378 -1.330787,4.4558 -5.789817,11.78204 -7.170927,11.78204 -0.203941,0 0.09428,-0.47662 0.701959,-1.12182 1.927204,-2.04632 5.893532,-9.61142 5.893532,-11.24097 0,-0.68117 2.994791,-6.72088 3.832181,-7.72867 0.74437,-0.89581 0.58126,-0.94825 -0.6528,-0.20985 -0.72545,0.43407 -1.821289,1.0597 -2.435196,1.39024 -0.613906,0.33054 -1.283639,0.74612 -1.488265,0.92347 -0.204637,0.17734 -0.81856,0.55591 -1.364231,0.84126 -0.692804,0.36226 -1.328988,1.03964 -2.108389,2.24494 -2.085768,3.2255 -4.029033,5.99433 -4.133807,5.88956 -0.13505,-0.13505 0.908358,-1.85659 2.738144,-4.51771 1.479059,-2.15109 1.690564,-2.75005 0.653409,-1.85058 -0.315592,0.2737 -0.674945,0.49765 -0.798531,0.49765 -0.123599,0 -0.162177,0.10121 -0.08573,0.22491 0.07645,0.1237 -0.08439,0.16649 -0.357422,0.0951 -0.274846,-0.0719 -0.496432,-0.008 -0.496432,0.14363 0,0.1504 -0.454973,0.57454 -1.011015,0.94252 -0.600493,0.39737 -1.245804,1.12904 -1.58923,1.80184 -0.702832,1.37691 -2.103892,3.33266 -2.269122,3.1673 -0.066,-0.066 0.260339,-0.71821 0.725189,-1.44932 1.272976,-2.00214 1.539329,-2.54759 1.130394,-2.31484 -0.843377,0.48 -1.947102,1.40669 -1.947102,1.63479 0,0.13858 -0.284847,0.62544 -0.633035,1.08192 -0.348162,0.45645 -1.018953,1.81637 -1.490674,3.02204 -1.587615,4.05787 -3.759425,7.80566 -5.488988,9.47251 -1.193814,1.15043 -0.859358,0.26317 0.658568,-1.74718 1.710407,-2.26529 2.55643,-3.81658 3.703334,-6.7902 0.421847,-1.09385 1.102639,-2.51812 1.512898,-3.16491 0.960956,-1.51525 0.939446,-1.62833 -0.130875,-0.68857 -0.482225,0.42341 -0.97281,0.76982 -1.090204,0.76982 -0.117379,0 -0.517044,0.58065 -0.888118,1.29036 -0.715611,1.36857 -2.117756,3.24508 -2.293463,3.0694 -0.05765,-0.0576 0.35168,-0.77702 0.909601,-1.59859 0.557921,-0.82158 1.014402,-1.56854 1.014402,-1.65993 0,-0.35176 -3.932196,2.48187 -4.322453,3.11491 -0.429097,0.69603 -3.196133,3.47315 -3.460449,3.47315 -0.144638,0 0.396871,-0.6668 1.203339,-1.48179 0.806468,-0.81498 1.410532,-1.53755 1.342376,-1.60571 -0.218946,-0.21895 -1.886618,1.05941 -3.216771,2.46571 -0.710504,0.75125 -1.410505,1.36592 -1.555548,1.36592 -0.145038,0 0.227814,-0.50083 0.82856,-1.11293 l 1.092268,-1.11293 -0.792577,0.29916 c -0.435923,0.16454 -0.792578,0.3929 -0.792578,0.50746 0,0.11457 -0.10476,0.14356 -0.232804,0.0644 -0.273497,-0.16902 -2.217714,0.85505 -4.45686,2.34749 -1.893391,1.26205 -5.979521,3.23503 -8.16231,3.9412 -1.661831,0.5376 -3.477912,0.92735 -3.27101,0.70198 z m 23.216945,-0.88523 c 1.230934,-0.89888 4.089092,-3.92214 4.978612,-5.26648 0.375202,-0.56696 0.724342,-0.90436 0.775856,-0.74979 0.316756,0.95027 -5.18525,6.72246 -6.407877,6.72246 -0.17272,0 0.121284,-0.31789 0.653356,-0.7064 z m 4.819335,0.57618 c 0.0079,-0.26691 1.095919,-1.45969 5.504598,-6.03456 3.615758,-3.75228 4.076393,-3.84065 0.718178,-0.13815 -2.943459,3.24561 -6.232725,6.50815 -6.222935,6.17266 z m -9.390494,-0.97551 c 0.361602,-0.3353 1.137564,-1.33989 1.724378,-2.2324 0.913173,-1.38894 1.457786,-1.95213 1.457786,-1.50753 0,0.8718 -2.765132,4.34971 -3.458333,4.34971 -0.267967,0 -0.18591,-0.18109 0.276275,-0.60965 z m 16.824678,-0.72056 c 0,-0.0495 0.920873,-1.26403 2.046372,-2.69899 1.125499,-1.43495 2.415462,-3.13686 2.866731,-3.78191 0.451136,-0.64513 0.88309,-1.1101 0.959898,-1.03329 0.07681,0.0768 -0.336785,0.8425 -0.919074,1.70154 -2.03854,3.00749 -4.953742,6.42799 -4.953742,5.81257 z m -6.372158,-2.12482 c 1.033452,-1.08171 2.15993,-2.41176 2.503302,-2.95563 0.659679,-1.04499 1.140475,-1.48459 1.140475,-1.04274 0,0.83147 -4.442043,5.96524 -5.161438,5.96524 -0.198753,0 0.484183,-0.88503 1.517634,-1.96674 z m -25.129333,1.48737 c 0,-0.12723 0.251145,-0.30112 0.558106,-0.38645 1.051311,-0.29218 2.418425,-0.94577 2.418425,-1.15622 0,-0.1157 0.251146,-0.20682 0.558107,-0.20248 0.552709,0.008 0.553291,0.0117 0.06201,0.39983 -1.117429,0.88283 -3.596708,1.81018 -3.596708,1.34531 z m 28.680533,-0.4508 c 0.39232,-0.37517 0.757045,-0.57877 0.810516,-0.45245 0.108148,0.25546 -0.877508,1.1346 -1.272077,1.1346 -0.138457,0 0.06924,-0.30697 0.461561,-0.68212 z m 6.579061,-0.74413 c 0.623854,-0.64801 2.000229,-2.23859 3.058551,-3.53453 2.381935,-2.91674 2.361645,-2.89478 2.361645,-2.54653 0,0.64637 -5.745631,7.25929 -6.307335,7.25929 -0.135957,0 0.263228,-0.53019 0.887086,-1.1782 z m 6.280876,-1.24022 c 0.49948,-0.64801 1.59169,-2.09656 2.42713,-3.21889 1.57346,-2.11394 2.27045,-2.61434 1.05131,-0.75477 -1.10473,1.68509 -3.90071,5.15192 -4.15471,5.15192 -0.12747,0 0.1769,-0.5302 0.67638,-1.17821 z m -40.438492,0.55022 c 0.264819,-0.2003 0.615891,-0.36417 0.780169,-0.36417 0.164278,0 1.0856,-0.33485 2.047377,-0.74413 1.772055,-0.75408 2.577121,-0.94707 2.135536,-0.51194 -0.38978,0.3841 -4.399181,2.00079 -4.941042,1.99232 -0.496142,-0.008 -0.496459,-0.0133 -0.02213,-0.37205 z m 42.555142,-0.0777 c 0,-0.11528 0.23584,-0.42224 0.5241,-0.68211 0.55377,-0.49927 2.08294,-2.47751 3.31149,-4.28383 0.91326,-1.34285 1.13736,-0.93746 0.28541,0.51628 -1.2688,2.16504 -4.12085,5.24478 -4.12085,4.44972 z m -34.160001,-0.59655 c 0.302072,-0.30696 0.587687,-0.47063 0.634703,-0.36372 0.124977,0.28424 -0.463678,0.92183 -0.851103,0.92183 -0.214294,0 -0.137219,-0.19877 0.216403,-0.55811 z m 29.447817,0.38439 c 7.94e-4,-0.1091 0.307575,-0.53321 0.682115,-0.94249 1.763589,-1.92716 5.409089,-6.74178 6.188799,-8.17343 0.62968,-1.15627 0.77597,-0.76101 0.16074,0.43431 -0.52011,1.01052 -2.55315,4.00628 -3.4742,5.11964 -2.37996,2.87625 -3.5602,4.05813 -3.55729,3.56178 z m -37.581023,-1.31456 c -0.08431,-0.13643 0.08101,-0.24805 0.36737,-0.24805 0.286364,0 1.676118,-0.39068 3.088184,-0.86814 2.547858,-0.86148 3.670262,-1.10309 2.819371,-0.60687 -1.728002,1.00758 -5.993279,2.1788 -6.275057,1.72308 z m 45.515797,0.005 c 0,-0.12537 0.15068,-0.31721 0.33485,-0.4263 0.58599,-0.34713 3.48797,-4.11105 4.36029,-5.65541 1.06171,-1.8796 1.31274,-1.38179 0.28016,0.55554 -1.24974,2.34477 -4.97517,6.48276 -4.97517,5.52603 z m 2.48044,-0.48601 c 0,-0.12837 0.1086,-0.30051 0.24133,-0.38256 0.3906,-0.2414 5.79696,-7.77073 7.08521,-9.86727 0.65073,-1.05911 1.22934,-1.87944 1.28581,-1.82298 0.29868,0.29868 -2.12141,4.28276 -4.52116,7.44291 -0.81771,1.07682 -1.70998,2.25772 -1.98282,2.62422 -1.37645,1.84889 -2.10839,2.54521 -2.10839,2.00576 z m 4.68704,-3.42526 c 2.26177,-2.85959 3.86897,-5.10747 5.65436,-7.90805 0.2529,-0.39674 0.29757,-0.40489 0.31006,-0.0566 0.0378,1.05549 -7.69268,11.37511 -8.52108,11.37511 -0.0775,0 1.07303,-1.53478 2.55674,-3.41071 z m 2.25823,2.80005 c 0,-0.28905 3.52738,-5.37045 3.64592,-5.25192 0.11884,0.11884 -2.11644,3.80414 -2.99162,4.93231 -0.31723,0.40894 -0.65412,0.57353 -0.65412,0.31956 z m -0.0527,-2.55198 c 1.02919,-1.25144 2.14902,-2.87837 4.27218,-6.2068 0.71992,-1.12857 1.36068,-2.00025 1.42386,-1.93704 0.28109,0.28109 -3.76207,6.62642 -5.32336,8.35466 -1.23903,1.37145 -1.53599,1.20344 -0.37279,-0.21093 z m 7.79771,0.12402 c 0.31266,-0.48373 2.24695,-3.77662 3.31493,-5.64297 0.19514,-0.34107 1.09124,-1.99412 1.99134,-3.67344 0.90011,-1.67935 1.69586,-2.99399 1.76833,-2.9215 0.43401,0.43402 -6.53594,12.78268 -7.22067,12.793 -0.11801,0.002 -0.0522,-0.24794 0.14617,-0.5549 z m -58.308263,-0.2977 c 0.241501,-0.25394 5.715469,-1.86942 6.287757,-1.85572 0.272835,0.006 -0.71204,0.38899 -2.188664,0.84989 -2.965683,0.92571 -4.344942,1.26411 -4.099146,1.00583 z m 57.599183,-1.93475 c 0.81719,-1.28589 1.17006,-1.89656 3.31837,-5.74272 1.36045,-2.43565 1.83839,-3.1702 1.97415,-3.03447 0.15483,0.15483 -1.91922,4.20815 -3.4586,6.75897 -1.9444,3.22206 -2.01396,3.32022 -2.35204,3.32022 -0.18126,0 0.0333,-0.53916 0.51826,-1.30224 z m -2.81804,0.67209 c 0,-0.24606 1.08266,-1.60225 1.27909,-1.60225 0.26044,0 -0.0257,0.76504 -0.48707,1.30224 -0.35761,0.4164 -0.792,0.58094 -0.792,0.30001 z m -55.760356,-1.23792 c 0.231418,-0.23142 10.895692,-3.37181 11.155775,-3.2853 0.413724,0.13791 -9.973365,3.41706 -10.823727,3.41706 -0.2551,0 -0.404517,-0.0593 -0.332048,-0.13177 z m 13.965356,-0.51437 c 0.409279,-0.34557 1.023186,-0.81457 1.36423,-1.04221 0.341071,-0.22765 1.467152,-1.02919 2.502403,-1.78121 l 1.882306,-1.3673 -2.378394,0.0653 c -3.924789,0.10777 -7.72787,0.52223 -9.630998,1.04967 -0.987044,0.27353 -2.019278,0.49731 -2.29386,0.49731 -0.274582,0 -0.499237,0.1182 -0.499237,0.26268 0,0.14448 -0.127557,0.18385 -0.283472,0.0875 -1.359653,-0.84031 5.103759,-2.26158 11.135667,-2.44869 2.89213,-0.0897 4.540202,-0.24697 5.084974,-0.48514 l 0.80578,-0.35239 -1.192862,-0.0202 c -0.764135,-0.0129 -1.135103,-0.11364 -1.032234,-0.28014 0.08835,-0.14295 0.736751,-0.23709 1.440906,-0.20921 1.142749,0.0453 1.446805,-0.0638 2.830482,-1.0148 1.659212,-1.14037 1.87839,-1.47626 0.992178,-1.52044 -0.306967,-0.0153 0.0026,-0.15483 0.687883,-0.31006 1.048956,-0.23759 2.354581,-0.97689 3.466799,-1.96303 0.149916,-0.13292 -0.04634,-0.19713 -0.496089,-0.16231 -1.78105,0.13787 -2.052457,-0.10225 -0.322577,-0.28541 1.050412,-0.11121 2.264889,-0.40332 2.698987,-0.64912 2.391676,-1.35468 2.391729,-1.35515 0.100789,-1.31486 -1.089543,0.0192 -2.09262,0.013 -2.229038,-0.0137 -0.537205,-0.10518 2.073518,-0.44685 3.546967,-0.46418 1.242841,-0.0146 3.026801,-0.50442 3.026008,-0.83089 -5.1e-5,-0.0306 -2.044097,-0.0883 -4.542319,-0.12831 -7.147115,-0.11435 -11.233562,0.26205 -17.34749,1.59793 -1.629022,0.35594 -0.491352,-0.34557 1.364231,-0.84123 3.966856,-1.0596 4.83468,-1.13855 13.10494,-1.19212 4.445218,-0.0288 8.35201,-0.13737 8.68142,-0.24124 0.93841,-0.2957 2.44427,-1.3809 1.8396,-1.32571 -0.27284,0.0249 -0.83094,0.018 -1.24022,-0.0153 l -0.74414,-0.0606 0.74414,-0.23184 c 0.40928,-0.12752 1.13481,-0.21873 1.6123,-0.20269 1.29388,0.0434 1.29533,0.043 2.61792,-0.81168 l 1.22678,-0.79277 -1.73631,-0.31035 -1.73631,-0.31035 2.10482,0.12161 c 1.94591,0.11243 2.20512,0.0693 3.43346,-0.57118 l 1.32862,-0.6928 -1.63424,-0.1438 c -2.50002,-0.21999 -2.28052,-0.50763 0.35562,-0.46601 2.2528,0.0356 3.2173,-0.1103 3.2173,-0.48659 0,-0.0963 -0.47439,-0.20201 -1.05419,-0.23484 -0.5798,-0.0328 -1.44485,-0.1594 -1.92234,-0.2813 -0.59046,-0.15073 -0.0737,-0.17724 1.61574,-0.0829 2.47298,0.13811 5.77156,-0.57319 3.84118,-0.8283 -2.41885,-0.31966 -4.58888,-0.66124 -6.07715,-0.95651 -4.78732,-0.94992 -14.109285,-1.23435 -17.355424,-0.52953 -2.199617,0.47757 -2.634984,0.24157 -0.724898,-0.39295 1.971125,-0.65479 12.580012,-0.72387 15.723762,-0.1024 0.20463,0.0405 1.48826,0.26567 2.85244,0.50046 1.36423,0.2348 3.08501,0.53426 3.82398,0.6655 2.23716,0.39726 3.63243,0.29567 4.92146,-0.35835 0.64701,-0.32832 1.71499,-0.81419 2.37327,-1.07973 l 1.19688,-0.48278 -2.80905,-0.43259 c -1.54505,-0.2379 -3.31149,-0.52088 -3.92532,-0.6288 -2.09019,-0.36748 0.27053,-0.2804 3.15407,0.11632 4.63677,0.63796 4.61931,0.63899 7.63076,-0.45566 l 0.98697,-0.35877 -0.98697,-0.2578 c -1.73006,-0.45193 -4.78891,-1.03215 -5.44136,-1.03215 -0.34681,0 -0.63058,-0.11846 -0.63058,-0.26324 0,-0.30276 1.17104,-0.16776 4.67805,0.53929 2.5432,0.51273 3.89754,0.59187 4.11476,0.24038 0.14785,-0.23922 -2.30185,-0.86573 -4.51427,-1.15449 -0.71622,-0.0935 -1.30224,-0.27228 -1.30224,-0.3973 0,-0.23967 0.81038,-0.13317 3.47262,0.45638 3.08739,0.68367 3.73561,0.68447 5.34082,0.006 1.45665,-0.61526 1.46845,-0.62814 0.73628,-0.80316 -0.40928,-0.0978 -1.94406,-0.49805 -3.41071,-0.88934 -1.46657,-0.39131 -3.86632,-1.03099 -5.33289,-1.42151 -1.46657,-0.39052 -3.72688,-0.84272 -5.0228,-1.00488 -1.29591,-0.16216 -3.24931,-0.41208 -4.3407,-0.5554 -1.64818,-0.21643 -5.3522,-0.40807 -8.9296,-0.46201 -0.6742,-0.0102 -0.69876,-0.0376 -0.2613,-0.29133 0.96678,-0.56086 9.40002,-0.2077 13.53171,0.56667 4.71853,0.88442 7.42995,1.53412 8.24406,1.97547 0.2369,0.12843 0.59923,0.2335 0.80517,0.2335 0.20595,0 1.04243,0.23117 1.85887,0.51371 0.81644,0.28254 1.59822,0.44339 1.73729,0.35742 0.13908,-0.086 0.25288,-0.0492 0.25288,0.0817 0,0.13089 0.34128,0.21435 0.75842,0.18547 0.41713,-0.0289 0.80961,0.0303 0.87219,0.13157 0.10149,0.16422 1.34428,0.0547 1.53419,-0.13523 0.0415,-0.0415 -1.16164,-0.56298 -2.67358,-1.15889 -1.51198,-0.59592 -2.65295,-1.11552 -2.53524,-1.15474 0.11759,-0.0392 1.40847,0.37748 2.86858,0.92593 3.01675,1.13312 3.64698,1.19699 4.94528,0.50109 0.50908,-0.27284 1.20505,-0.49609 1.5466,-0.49609 1.3931,0 0.44164,-0.53675 -2.66565,-1.5038 -3.96474,-1.23395 -4.04279,-1.264 -2.79529,-1.07909 0.54302,0.0805 2.37657,0.5875 4.07454,1.12667 2.08815,0.66306 3.31387,0.93053 3.78747,0.82647 1.01724,-0.22343 0.86317,-0.47498 -0.50577,-0.82584 -1.71612,-0.43984 -6.50868,-2.04798 -5.6152,-1.88416 0.40928,0.075 2.251,0.57925 4.0928,1.12048 l 3.34854,0.98405 1.86032,-0.58105 1.86031,-0.58104 -1.11621,-0.18238 c -2.83366,-0.46296 -7.34185,-1.8818 -6.92355,-2.17903 0.27908,-0.19833 0.263,-0.22092 -0.0791,-0.11108 -0.23621,0.0758 -1.63146,-0.37232 -3.10062,-0.99591 -1.46911,-0.62356 -3.34086,-1.28734 -4.15947,-1.47506 l -1.48827,-0.34129 1.36423,0.10317 c 0.79216,0.0599 3.70466,0.88148 6.94524,1.95919 5.73955,1.90874 7.29237,2.28259 9.1156,2.19438 0.5798,-0.028 1.05419,0.0615 1.05419,0.19889 0,0.13744 -0.35718,0.24989 -0.79374,0.24989 -0.53601,0 -0.71214,0.0816 -0.54244,0.25129 0.2836,0.28361 1.83735,-0.15172 2.13008,-0.59681 0.0956,-0.14534 0.54208,-0.23684 0.99218,-0.20333 0.45011,0.0335 0.9858,-0.0508 1.19046,-0.1874 0.30511,-0.20365 0.27447,-0.24902 -0.17032,-0.25213 -1.05097,-0.007 -6.46212,-1.4549 -8.44092,-2.25798 -1.75642,-0.71289 -1.53589,-0.85957 0.32303,-0.21488 2.94346,1.02086 7.94694,2.21946 9.26799,2.22023 0.82047,4.7e-4 1.25922,0.0896 1.11621,0.2268 -0.35694,0.34237 -4.47273,1.86804 -6.43671,2.38607 -0.95498,0.25187 -1.79211,0.52461 -1.86032,0.60604 -0.0682,0.0814 -0.68212,0.27408 -1.36423,0.4281 -2.77387,0.6262 -5.24611,1.40206 -5.86734,1.84126 -0.36213,0.25606 -0.89233,0.46556 -1.17821,0.46556 -0.2859,0 -0.51979,0.11162 -0.51979,0.24804 0,0.13643 -0.16453,0.24805 -0.3656,0.24805 -0.48484,0 -3.3435,1.10724 -7.69585,2.98076 -1.08425,0.46675 -4.69922,1.73039 -5.31834,1.85905 -0.56641,0.11773 -2.84636,1.1541 -2.99135,1.35966 -0.10856,0.15412 -2.2928,1.17116 -5.95306,2.77201 -1.99721,0.87343 -3.32895,1.55742 -4.38542,2.25253 -0.57028,0.37517 -1.14262,0.68211 -1.27187,0.68211 -0.12924,0 -0.36713,0.15923 -0.52865,0.35385 -0.16152,0.19462 -1.15186,0.78062 -2.20076,1.30224 -1.0489,0.52162 -1.9629,1.00438 -2.0311,1.0728 -0.0682,0.0684 -0.45889,0.28749 -0.86815,0.48683 -0.40928,0.19932 -1.52546,0.85814 -2.480439,1.46405 -0.954977,0.60592 -2.629269,1.64411 -3.720532,2.30709 -2.701367,1.64101 -2.905888,1.77327 -3.293763,2.12877 -0.186035,0.17053 -0.443914,0.31006 -0.573055,0.31006 -0.129142,0 -3.241641,2.12077 -6.916665,4.71271 -6.126628,4.32139 -8.243008,5.68054 -6.331678,4.0666 z m 53.2045,-0.49805 c 0,-0.13466 0.10644,-0.35128 0.23654,-0.48138 0.13009,-0.13009 0.90968,-1.57557 1.73242,-3.21227 1.66738,-3.31678 2.06148,-3.29297 0.51148,0.0309 -0.54569,1.17019 -0.99217,2.20729 -0.99217,2.30466 0,0.0974 -0.33486,0.49783 -0.74413,0.88994 -0.40928,0.39211 -0.74414,0.60274 -0.74414,0.4681 z m -37.811203,-1.50834 c -0.19653,-0.51215 1.215642,-3.37129 3.34615,-6.77512 1.770415,-2.82837 2.342094,-3.17153 0.729423,-0.43791 -2.570163,4.35659 -3.654916,6.46238 -3.545115,6.88227 0.151977,0.58115 -0.321281,0.87627 -0.530564,0.33086 z m 36.819033,0.0776 c 0,-0.21826 0.61287,-1.35566 2.88948,-5.36252 0.8139,-1.43247 1.74687,-3.27419 2.0732,-4.0928 0.72591,-1.82076 1.10613,-2.30757 0.87182,-1.11621 -0.4078,2.07341 -5.83453,11.90586 -5.83453,10.57131 z m -58.40087,-3.35013 c 0.567393,-0.5295 7.800894,-1.93831 7.800894,-1.51932 0,0.13803 -0.233223,0.25097 -0.518287,0.25097 -0.285059,0 -1.967395,0.33486 -3.738523,0.74414 -3.475795,0.80316 -3.912353,0.86774 -3.544322,0.52424 z m 66.09222,-0.35816 c 0,-0.24824 0.58319,-1.49779 1.11939,-2.39847 0.51361,-0.8627 2.38192,-5.23579 3.21201,-7.51833 0.78708,-2.16416 0.69699,-0.99585 -0.11471,1.48769 -1.14683,3.50887 -4.21662,9.64555 -4.21662,8.42927 z m -35.96708,-0.31718 c 0,-0.56168 4.41559,-7.1741 4.64048,-6.94921 0.0637,0.0637 -0.91079,1.65945 -2.16559,3.54618 -2.53481,3.81128 -2.47491,3.72873 -2.47491,3.40303 z m 3.47262,-0.0182 c 0,-0.18715 3.24641,-6.14462 4.09809,-7.51991 0.29562,-0.47748 0.73122,-1.18479 0.96805,-1.57179 1.02792,-1.67974 0.54932,-0.27347 -0.54623,1.605 -0.66566,1.14135 -1.90932,3.3308 -2.76381,4.86564 -1.44249,2.59124 -1.7561,3.05934 -1.7561,2.62114 z m -36.461844,-0.25407 c 0.341071,-0.0593 1.333248,-0.32433 2.204855,-0.58891 2.620327,-0.79546 4.667995,-1.21265 6.551809,-1.33486 l 1.785099,-0.11579 -1.364231,0.25103 c -1.953186,0.35941 -4.306313,0.89651 -6.432482,1.46819 -1.013952,0.27265 -2.185965,0.4805 -2.604479,0.46193 -0.669521,-0.0297 -0.686427,-0.0467 -0.140796,-0.1416 z m 67.536834,-0.59126 c 0.23707,-0.32869 0.53173,-0.82084 0.65478,-1.09367 1.35542,-3.00511 3.78377,-7.85222 3.88378,-7.75221 0.38529,0.38528 -3.92029,9.09363 -4.60979,9.32355 -0.28019,0.0934 -0.26445,-0.0125 0.071,-0.47757 z m -36.95132,-0.28675 c 0.2246,-0.62603 2.67544,-4.21477 2.79582,-4.09439 0.0961,0.0961 -2.42033,4.05549 -2.78153,4.37669 -0.0934,0.0831 -0.0999,-0.044 -0.0144,-0.28228 z m 8.60839,-0.99848 c -0.006,-0.35509 2.01124,-4.2018 2.13734,-4.0756 0.0687,0.0687 -0.38341,1.0569 -1.00462,2.19605 -0.6212,1.13915 -1.13095,1.98499 -1.13272,1.87963 z m -30.725739,-1.29004 c 0.325038,-0.32501 8.091139,-1.62966 9.515111,-1.59841 0.872507,0.0191 -0.294663,0.38708 -1.860319,0.58647 -0.750324,0.0956 -2.660357,0.38872 -4.244401,0.6515 -2.977854,0.49397 -3.610996,0.56089 -3.410444,0.36044 z m 59.033219,-1.30893 c 0.40298,-0.44222 0.95061,-1.77251 1.55719,-3.78271 2.95219,-9.78366 4.33145,-12.91312 7.32412,-16.61884 1.05512,-1.3066 0.4459,0.10452 -0.96493,2.23505 -1.68723,2.54791 -2.28272,3.78985 -2.73841,5.71097 -0.17687,0.74553 -0.4001,1.41135 -0.49609,1.47956 -0.22642,0.16094 -1.73903,4.10285 -1.73398,4.51877 0.0211,1.742 -2.42964,7.13918 -3.24164,7.13918 -0.20017,0 -0.0858,-0.26532 0.29397,-0.68212 z m -59.811086,-0.1644 c 0,-0.5236 10.545917,-2.17869 13.356027,-2.09608 1.320178,0.0388 0.992204,0.0896 -4.550521,0.70404 -1.500674,0.16638 -4.055491,0.57068 -5.677105,0.89847 -3.248785,0.65661 -3.128401,0.63764 -3.128401,0.49357 z m 45.693066,-0.88978 c 0.0698,-0.20464 0.31956,-1.04179 0.55509,-1.86032 0.61382,-2.13331 2.01023,-5.42655 3.0686,-7.23734 1.42993,-2.44618 1.37693,-1.83307 -0.0842,0.97424 -0.72781,1.39836 -1.73935,3.77027 -2.24785,5.27097 -0.50849,1.50068 -1.0357,2.84001 -1.17159,2.97654 -0.16435,0.16502 -0.20457,0.1235 -0.12017,-0.12403 z m -4.01951,-0.46855 c -0.004,-0.44799 3.61099,-7.45826 4.70927,-9.13305 1.25617,-1.91525 1.21593,-1.37667 -0.0632,0.84562 -0.61251,1.06414 -1.61892,2.93949 -2.23645,4.16715 -1.51602,3.01436 -2.40612,4.53623 -2.40972,4.12031 z m -7.94033,-0.37401 c 0,-0.28331 2.09932,-3.46839 3.22312,-4.88998 0.54657,-0.69145 0.99374,-1.15158 0.99374,-1.02252 0,0.12906 -0.4064,0.76688 -0.90312,1.41741 -0.49672,0.65052 -1.44548,1.97007 -2.10839,2.93235 -0.66288,0.96228 -1.20527,1.66553 -1.20527,1.56279 z m 32.58046,-0.58369 c 0.19167,-0.37518 0.72474,-2.13318 1.18458,-3.9068 0.89505,-3.45198 1.33264,-3.40356 0.5717,0.0634 -0.57856,2.63602 -1.30676,4.52539 -1.74417,4.52539 -0.31252,0 -0.31413,-0.091 -0.0121,-0.68212 z m -27.12481,-2.379 c 0,-0.34467 2.52278,-4.13222 2.75243,-4.13222 0.36224,0 0.28268,0.16518 -0.92637,1.92347 -1.23959,1.8027 -1.826,2.51201 -1.826,2.20869 z m 10.60572,-1.44324 c -0.12522,-0.35752 3.0985,-7.00927 3.52447,-7.27252 0.14095,-0.0871 0.25627,-0.1099 0.25627,-0.0507 0,0.43637 -3.68984,7.5834 -3.78086,7.32332 z m 10.12735,-1.13865 c 0.22001,-0.51159 0.48481,-1.20921 0.58845,-1.55028 0.40878,-1.34526 5.19054,-10.28134 5.39321,-10.07867 0.0618,0.0618 -0.28477,0.87576 -0.77006,1.80886 -0.48532,0.9331 -1.89276,3.7335 -3.12761,6.22347 -2.05063,4.13433 -3.07681,5.9057 -2.08392,3.5967 z m -56.699619,0.21947 c 0,-0.40132 3.943309,-1.06269 7.987687,-1.33968 2.133049,-0.14609 1.490912,0.21931 -0.725559,0.41285 -1.895138,0.1655 -5.974758,0.78991 -6.828031,1.04504 -0.238741,0.0714 -0.43407,0.0182 -0.43407,-0.11824 z m 53.080149,-0.31189 c 0,-0.36324 3.66048,-6.8484 3.97533,-7.04313 0.41555,-0.25682 0.29236,0.002 -1.76698,3.70756 -1.96395,3.53427 -2.20848,3.90363 -2.20848,3.33557 z m -53.064274,-0.93302 c 0.389621,-0.25122 7.701146,-1.80655 10.029191,-2.13342 2.59707,-0.36464 0.796864,0.12182 -4.012629,1.08431 -2.75005,0.55035 -5.316217,1.06793 -5.702769,1.15018 -0.527997,0.11239 -0.606022,0.0873 -0.313952,-0.10106 z m 51.553524,-1.6581 c 0.4505,-0.80916 0.99286,-1.63862 1.2053,-1.84328 0.21243,-0.20463 0.12719,0.0744 -0.18942,0.62013 -0.3166,0.54571 -0.73235,1.29692 -0.92391,1.66937 -0.19155,0.37245 -0.4749,0.75546 -0.62965,0.8511 -0.15476,0.0957 0.0872,-0.48815 0.53768,-1.29729 z m -47.211757,-1.31906 c -0.285429,-0.46185 4.178521,-0.93617 11.888663,-1.26327 6.923014,-0.29368 7.448474,-0.30162 7.256654,-0.10968 -0.0789,0.0789 -3.38796,0.29848 -7.353755,0.48797 -6.27638,0.2999 -8.872445,0.53225 -11.11159,0.99464 -0.298606,0.0616 -0.604567,0.0123 -0.679946,-0.10967 z m 60.734467,-0.89627 c 0.3334,-1.41781 3.7253,-7.78608 4.00046,-7.51091 0.0983,0.0983 -3.72079,7.83529 -3.9904,8.08426 -0.10184,0.094 -0.10643,-0.16392 -0.0102,-0.57319 z m -1.75004,-0.70278 c 0.25501,-1.01601 3.30885,-6.02556 3.53506,-5.79908 0.0584,0.0584 -0.34715,0.85232 -0.90118,1.76428 -0.55404,0.91196 -1.34526,2.3231 -1.75827,3.13581 -0.78184,1.53854 -1.12447,1.8903 -0.87566,0.89899 z m -52.304962,-3.33041 c 0.304374,-0.30882 5.332886,-0.56377 5.332886,-0.27037 0,0.11566 -0.373826,0.2103 -0.83073,0.2103 -0.456904,0 -1.71263,0.0701 -2.790531,0.15587 -1.324358,0.10533 -1.879343,0.0743 -1.711731,-0.0958 z m 0.695953,-1.88596 c 0.676109,-0.26622 9.422769,-0.25242 10.539299,0.0166 0.47522,0.11453 -1.67328,0.19712 -5.133125,0.19733 -3.596708,2.2e-4 -5.735048,-0.0844 -5.406174,-0.21395 z m 13.070539,-1.19138 c -0.75032,-0.12693 -2.75957,-0.37821 -4.46479,-0.55837 -1.909877,-0.20179 -2.62144,-0.34017 -1.852939,-0.36033 1.269509,-0.0333 6.275319,0.52816 8.302009,0.93119 1.60619,0.3194 -0.0855,0.30877 -1.98435,-0.0125 z m 4.44416,-1.0457 c -0.0568,-0.0519 -2.44737,-0.29172 -5.31224,-0.53305 -2.86488,-0.24132 -5.320454,-0.54683 -5.456978,-0.67891 -0.375889,-0.36391 9.894788,0.56546 11.657948,1.05493 l 0.74413,0.20656 -0.76479,0.0224 c -0.42063,0.0123 -0.81131,-0.0201 -0.86814,-0.0719 z m -7.2966,-4.86352 c 0.5457,-0.11552 2.88975,-0.26873 5.20906,-0.34049 2.75085,-0.0851 3.61312,-0.0607 2.48045,0.0701 -2.59967,0.30033 -8.87298,0.52088 -7.68924,0.27033 z m 14.88266,-0.74723 c -0.67521,-0.17181 -0.68669,-0.19045 -0.12402,-0.20126 0.34107,-0.007 0.84335,0.084 1.11621,0.20126 0.61163,0.26283 0.0407,0.26283 -0.99218,0 z m 12.27812,-0.27077 c -0.6139,-0.27934 -3.14507,-1.17984 -5.62498,-2.00107 -2.47983,-0.82123 -4.56163,-1.63088 -4.62619,-1.7992 -0.0646,-0.16834 1.96435,0.43671 4.50872,1.34457 4.79631,1.71133 6.98254,2.59948 6.98254,2.83657 0,0.18687 0.0227,0.19384 -1.24022,-0.38084 z m -16.49501,-0.2718 c -2.93102,-0.2916 -3.92399,-0.45296 -3.76524,-0.61179 0.15426,-0.15427 5.12043,0.35171 6.36951,0.64896 1.12598,0.26792 0.35099,0.25686 -2.60448,-0.0372 z m 3.07046,-1.18508 c -0.35763,-0.10821 -1.75287,-0.28125 -3.10062,-0.38455 -3.73746,-0.28646 -3.91156,-0.30445 -4.31055,-0.44547 -0.20463,-0.0723 -0.5395,-0.18513 -0.74413,-0.25068 -0.5168,-0.16554 2.9297,0.0565 5.35326,0.34483 1.81881,0.2164 4.72091,0.92169 3.82425,0.92942 -0.20464,0.002 -0.66468,-0.0853 -1.02229,-0.19354 z m 10.44802,-0.89111 c -1.7053,-0.59719 -3.96553,-1.27586 -5.02279,-1.50816 -1.0573,-0.23231 -1.92234,-0.51713 -1.92234,-0.63291 0,-0.11578 0.25114,-0.15344 0.5581,-0.0837 0.30697,0.0698 1.0964,0.24162 1.75433,0.38187 1.18987,0.25367 7.14738,2.33384 7.85752,2.74344 0.72807,0.42015 -0.16576,0.17047 -3.22471,-0.90069 z m 20.02955,0.9595 c -0.23874,-0.0624 -0.43407,-0.22346 -0.43407,-0.35792 0,-0.13447 0.12036,-0.17011 0.26746,-0.0792 0.14712,0.0909 0.5657,0.25534 0.93016,0.36539 0.72209,0.21801 0.041,0.28199 -0.76358,0.0717 z m -26.72793,-0.73641 c -0.20464,-0.0682 -0.52758,-0.17368 -0.71763,-0.2343 -0.19005,-0.0606 -0.29193,-0.16383 -0.22638,-0.22938 0.0655,-0.0655 0.55591,0.0408 1.0897,0.23641 0.87653,0.32115 0.74606,0.52469 -0.14568,0.22727 z m -2.48045,-0.58088 -0.62012,-0.1986 0.62012,-0.0209 c 0.34107,-0.0115 0.78755,0.0873 0.99218,0.21952 0.47379,0.30618 -0.0361,0.30618 -0.99218,0 z"
       id="path1"
       style="fill:#5ba55d;fill-opacity:1;stroke-width:0.264581" /></g></svg>
