<?xml version="1.0" encoding="UTF-8" standalone="no"?>
<!-- Created with Inkscape (http://www.inkscape.org/) -->

<svg
   width="210mm"
   height="297mm"
   viewBox="0 0 210 297"
   version="1.1"
   id="svg1"
   xml:space="preserve"
   inkscape:version="1.3.2 (091e20e, 2023-11-25, custom)"
   sodipodi:docname="Logo vertical.svg"
   xmlns:inkscape="http://www.inkscape.org/namespaces/inkscape"
   xmlns:sodipodi="http://sodipodi.sourceforge.net/DTD/sodipodi-0.dtd"
   xmlns="http://www.w3.org/2000/svg"
   xmlns:svg="http://www.w3.org/2000/svg"><sodipodi:namedview
     id="namedview1"
     pagecolor="#ffffff"
     bordercolor="#000000"
     borderopacity="0.25"
     inkscape:showpageshadow="2"
     inkscape:pageopacity="0.0"
     inkscape:pagecheckerboard="0"
     inkscape:deskcolor="#d1d1d1"
     inkscape:document-units="mm"
     inkscape:zoom="1.0141844"
     inkscape:cx="358.41609"
     inkscape:cy="559.06995"
     inkscape:window-width="1279"
     inkscape:window-height="868"
     inkscape:window-x="338"
     inkscape:window-y="70"
     inkscape:window-maximized="0"
     inkscape:current-layer="layer1-1" /><defs
     id="defs1"><clipPath
       clipPathUnits="userSpaceOnUse"
       id="clipPath3"><path
         d="M 0,500 H 500 V 0 H 0 Z"
         transform="translate(-102.0825,-332.72561)"
         id="path3" /></clipPath><clipPath
       clipPathUnits="userSpaceOnUse"
       id="clipPath5"><path
         d="M 0,500 H 500 V 0 H 0 Z"
         transform="translate(-87.458005,-304.51761)"
         id="path5" /></clipPath><clipPath
       clipPathUnits="userSpaceOnUse"
       id="clipPath7"><path
         d="M 0,500 H 500 V 0 H 0 Z"
         transform="translate(-115.73391,-373.62551)"
         id="path7" /></clipPath><clipPath
       clipPathUnits="userSpaceOnUse"
       id="clipPath33"><path
         d="M 0,500 H 500 V 0 H 0 Z"
         transform="translate(-322.83791,-354.29301)"
         id="path33" /></clipPath><clipPath
       clipPathUnits="userSpaceOnUse"
       id="clipPath35"><path
         d="M 0,500 H 500 V 0 H 0 Z"
         transform="translate(-303.94821,-304.51761)"
         id="path35" /></clipPath><clipPath
       clipPathUnits="userSpaceOnUse"
       id="clipPath37"><path
         d="M 0,500 H 500 V 0 H 0 Z"
         transform="translate(-332.22461,-373.62551)"
         id="path37" /></clipPath><clipPath
       clipPathUnits="userSpaceOnUse"
       id="clipPath45"><path
         d="M 0,500 H 500 V 0 H 0 Z"
         transform="translate(-198.89451,-354.95121)"
         id="path45" /></clipPath><clipPath
       clipPathUnits="userSpaceOnUse"
       id="clipPath47"><path
         d="M 0,500 H 500 V 0 H 0 Z"
         transform="translate(-195.66891,-304.51761)"
         id="path47" /></clipPath><clipPath
       clipPathUnits="userSpaceOnUse"
       id="clipPath49"><path
         d="M 0,500 H 500 V 0 H 0 Z"
         transform="translate(-223.9453,-373.62551)"
         id="path49" /></clipPath><clipPath
       clipPathUnits="userSpaceOnUse"
       id="clipPath39"><path
         d="M 0,500 H 500 V 0 H 0 Z"
         transform="translate(-434.18651,-246.8271)"
         id="path39" /></clipPath><clipPath
       clipPathUnits="userSpaceOnUse"
       id="clipPath41"><path
         d="M 0,500 H 500 V 0 H 0 Z"
         transform="translate(-412.46191,-191.81351)"
         id="path41" /></clipPath><clipPath
       clipPathUnits="userSpaceOnUse"
       id="clipPath43"><path
         d="M 0,500 H 500 V 0 H 0 Z"
         transform="translate(-440.73731,-260.9199)"
         id="path43" /></clipPath></defs><g
     inkscape:label="Calque 1"
     inkscape:groupmode="layer"
     id="layer1"><g
       inkscape:label="Calque 1"
       id="layer1-1"
       transform="translate(2.4274653,74.442216)"><path
         id="path2"
         d="m 0,0 c 0,-0.495 -0.401,-0.896 -0.896,-0.896 h -4.451 c -0.495,0 -0.896,0.401 -0.896,0.896 v 8.157 c 0,1.216 0.357,5.332 -3.18,5.332 -2.744,0 -3.3,-2.817 -3.411,-4.081 V 0 c 0,-0.495 -0.401,-0.896 -0.896,-0.896 h -4.306 c -0.495,0 -0.896,0.401 -0.896,0.896 v 17.546 c 0,0.495 0.401,0.897 0.896,0.897 h 4.306 c 0.494,0 0.896,-0.401 0.896,-0.897 v -1.517 c 1.017,1.527 2.529,2.705 5.748,2.705 C 0.041,18.734 0,12.075 0,8.416 Z m -24.728,20.082 c -2.176,0 -3.94,1.764 -3.94,3.941 0,2.177 1.764,3.941 3.94,3.941 2.177,0 3.941,-1.765 3.941,-3.941 0,-2.177 -1.764,-3.941 -3.941,-3.941 m 3.049,-20.004 c 0,-0.538 -0.436,-0.974 -0.974,-0.974 h -4.148 c -0.539,0 -0.975,0.436 -0.975,0.974 v 17.39 c 0,0.538 0.436,0.974 0.975,0.974 h 4.148 c 0.538,0 0.974,-0.436 0.974,-0.974 z M 0.537,32.043 h -30.323 c -1.849,0 -3.348,-1.499 -3.348,-3.348 V -1.627 c 0,-1.85 1.499,-3.35 3.348,-3.35 H 0.537 c 1.849,0 3.349,1.5 3.349,3.35 v 30.322 c 0,1.849 -1.5,3.348 -3.349,3.348"
         style="fill:#418c44;fill-opacity:1;fill-rule:nonzero;stroke:none"
         transform="matrix(0.35277776,0,0,-0.35277776,88.411577,79.031038)"
         clip-path="url(#clipPath3)" /><path
         id="path4"
         d="m 0,0 c -23.016,0 -41.741,18.726 -41.741,41.741 0,23.016 18.725,41.742 41.741,41.742 2.822,0 5.644,-0.284 8.386,-0.843 1.51,-0.308 3.016,-0.704 4.477,-1.177 0.737,-0.238 1.141,-1.029 0.903,-1.767 -0.239,-0.738 -1.031,-1.14 -1.767,-0.903 -1.363,0.441 -2.767,0.811 -4.174,1.098 -2.557,0.522 -5.19,0.786 -7.825,0.786 -21.469,0 -38.935,-17.467 -38.935,-38.936 0,-21.469 17.466,-38.934 38.935,-38.934 21.469,0 38.936,17.465 38.936,38.934 0,6.391 -1.582,12.728 -4.573,18.325 -0.365,0.684 -0.108,1.534 0.575,1.899 0.685,0.368 1.533,0.107 1.899,-0.576 3.208,-6.003 4.904,-12.797 4.904,-19.648 C 41.741,18.726 23.016,0 0,0"
         style="fill:#418c44;fill-opacity:1;fill-rule:nonzero;stroke:none"
         transform="matrix(0.35277776,0,0,-0.35277776,83.252379,88.982195)"
         clip-path="url(#clipPath5)" /><path
         id="path6"
         d="m 0,0 c -0.354,0 -0.71,0.134 -0.983,0.402 -0.996,0.979 -2.056,1.914 -3.148,2.779 -0.842,0.666 -1.72,1.304 -2.611,1.897 -0.646,0.428 -0.821,1.299 -0.392,1.945 0.429,0.645 1.3,0.82 1.946,0.391 C -4.233,6.779 -3.292,6.095 -2.39,5.381 -1.219,4.455 -0.084,3.453 0.983,2.403 1.536,1.86 1.544,0.972 1.001,0.419 0.727,0.14 0.363,0 0,0"
         style="fill:#418c44;fill-opacity:1;fill-rule:nonzero;stroke:none"
         transform="matrix(0.35277776,0,0,-0.35277776,93.227488,64.602463)"
         clip-path="url(#clipPath7)" /><path
         id="path32"
         d="m 0,0 c 0,0 -0.379,2.782 -1.531,4.001 -1.465,1.597 -3.111,1.597 -3.868,1.696 -5.4,0.395 -13.482,0.395 -13.482,0.395 h -0.016 c 0,0 -8.082,0 -13.482,-0.395 C -33.137,5.598 -34.767,5.598 -36.247,3.984 -37.399,2.766 -37.762,0 -37.762,0 c 0,0 -0.395,-3.243 -0.395,-6.503 v -0.394 -2.651 c 0,-3.26 0.395,-6.503 0.395,-6.503 0,0 0.363,-2.765 1.515,-3.984 1.48,-1.613 3.407,-1.564 4.263,-1.729 3.079,-0.296 13.103,-0.395 13.103,-0.395 0,0 8.082,0.016 13.482,0.412 0.757,0.099 2.403,0.099 3.868,1.712 1.152,1.219 1.531,3.984 1.531,3.984 0,0 0.379,3.243 0.379,6.503 v 2.486 0.559 C 0.379,-3.243 0,0 0,0 m -12.461,-7.622 -10.403,-5.613 v 8.642 2.634 l 4.691,-2.551 z"
         style="fill:#418c44;fill-opacity:1;fill-rule:evenodd;stroke:none"
         transform="matrix(0.35277776,0,0,-0.35277776,90.894019,138.20856)"
         clip-path="url(#clipPath33)" /><path
         id="path34"
         d="m 0,0 c -23.016,0 -41.741,18.726 -41.741,41.741 0,23.016 18.725,41.742 41.741,41.742 2.823,0 5.646,-0.284 8.387,-0.843 1.509,-0.308 3.014,-0.704 4.476,-1.177 0.738,-0.238 1.142,-1.029 0.903,-1.767 -0.238,-0.737 -1.028,-1.141 -1.767,-0.903 -1.362,0.441 -2.767,0.811 -4.174,1.098 C 5.268,80.413 2.636,80.677 0,80.677 -21.47,80.677 -38.935,63.21 -38.935,41.741 -38.935,20.272 -21.47,2.807 0,2.807 c 21.47,0 38.936,17.465 38.936,38.934 0,6.391 -1.582,12.728 -4.574,18.325 -0.365,0.684 -0.106,1.534 0.576,1.899 0.681,0.365 1.534,0.108 1.9,-0.576 3.208,-6.003 4.904,-12.797 4.904,-19.648 C 41.742,18.726 23.017,0 0,0"
         style="fill:#418c44;fill-opacity:1;fill-rule:nonzero;stroke:none"
         transform="matrix(0.35277776,0,0,-0.35277776,84.230159,155.76821)"
         clip-path="url(#clipPath35)" /><path
         id="path36"
         d="m 0,0 c -0.355,0 -0.711,0.134 -0.984,0.402 -0.995,0.979 -2.055,1.914 -3.148,2.779 -0.846,0.67 -1.724,1.307 -2.61,1.896 -0.646,0.429 -0.821,1.3 -0.392,1.945 0.428,0.645 1.301,0.821 1.945,0.393 C -4.238,6.783 -3.297,6.099 -2.391,5.381 -1.22,4.455 -0.084,3.453 0.983,2.403 1.536,1.86 1.544,0.972 1.001,0.419 0.726,0.14 0.362,0 0,0"
         style="fill:#418c44;fill-opacity:1;fill-rule:nonzero;stroke:none"
         transform="matrix(0.35277776,0,0,-0.35277776,94.205439,131.38848)"
         clip-path="url(#clipPath37)" /><path
         id="path44"
         d="m 0,0 v 3.477 c 0,1.71 1.134,2.101 1.934,2.101 h 4.888 v 7.455 L 0.093,13.07 c -7.454,0 -9.164,-5.578 -9.164,-9.129 V 0 h -4.314 v -5.261 -3.44 h 4.351 v -21.753 h 8.7 V -8.701 H 6.135 L 6.451,-5.28 6.935,0 Z"
         style="fill:#418c44;fill-opacity:1;fill-rule:evenodd;stroke:none"
         transform="matrix(0.35277776,0,0,-0.35277776,85.258449,105.10511)"
         clip-path="url(#clipPath45)" /><path
         id="path46"
         d="m 0,0 c -23.016,0 -41.74,18.726 -41.74,41.741 0,23.016 18.724,41.742 41.74,41.742 2.823,0 5.644,-0.284 8.387,-0.843 1.509,-0.308 3.014,-0.704 4.476,-1.177 0.738,-0.238 1.142,-1.029 0.903,-1.767 -0.238,-0.737 -1.027,-1.141 -1.767,-0.903 -1.361,0.441 -2.767,0.811 -4.173,1.098 C 5.268,80.413 2.635,80.677 0,80.677 -21.469,80.677 -38.935,63.21 -38.935,41.741 -38.935,20.272 -21.469,2.807 0,2.807 c 21.47,0 38.936,17.465 38.936,38.934 0,6.392 -1.582,12.729 -4.574,18.325 -0.365,0.684 -0.106,1.534 0.577,1.899 0.68,0.365 1.533,0.108 1.899,-0.576 3.208,-6.002 4.903,-12.796 4.903,-19.648 C 41.741,18.726 23.016,0 0,0"
         style="fill:#418c44;fill-opacity:1;fill-rule:nonzero;stroke:none"
         transform="matrix(0.35277776,0,0,-0.35277776,84.120529,122.89697)"
         clip-path="url(#clipPath47)" /><path
         id="path48"
         d="m 0,0 c -0.355,0 -0.711,0.134 -0.983,0.402 -0.996,0.979 -2.056,1.914 -3.148,2.779 -0.842,0.666 -1.721,1.304 -2.612,1.897 -0.645,0.429 -0.82,1.3 -0.391,1.945 0.431,0.646 1.302,0.82 1.946,0.391 C -4.233,6.779 -3.292,6.095 -2.391,5.381 -1.22,4.455 -0.084,3.453 0.984,2.403 1.536,1.86 1.544,0.972 1.001,0.419 0.727,0.14 0.362,0 0,0"
         style="fill:#418c44;fill-opacity:1;fill-rule:nonzero;stroke:none"
         transform="matrix(0.35277776,0,0,-0.35277776,94.095809,98.517237)"
         clip-path="url(#clipPath49)" /><path
         id="path38"
         d="m 0,0 c -1.596,-0.705 -3.304,-1.169 -5.104,-1.393 1.837,1.096 3.249,2.804 3.917,4.865 -1.726,-1.003 -3.638,-1.745 -5.662,-2.135 -1.632,1.707 -3.953,2.766 -6.514,2.766 -4.919,0 -8.909,-3.917 -8.909,-8.762 0,-0.687 0.074,-1.356 0.222,-2.005 -7.405,0.371 -13.975,3.861 -18.375,9.17 -0.761,-1.299 -1.206,-2.803 -1.206,-4.418 0,-3.044 1.577,-5.717 3.972,-7.295 -1.466,0.037 -2.84,0.445 -4.046,1.096 v -0.112 c 0,-1.132 0.223,-2.191 0.612,-3.174 1.095,-2.766 3.545,-4.845 6.552,-5.44 -0.761,-0.184 -1.54,-0.296 -2.357,-0.296 -0.576,0 -1.132,0.056 -1.67,0.149 1.131,-3.491 4.417,-6.015 8.314,-6.089 -3.043,-2.358 -6.886,-3.769 -11.061,-3.769 -0.725,0 -1.43,0.056 -2.135,0.13 3.954,-2.487 8.649,-3.934 13.679,-3.934 13.92,0 22.496,9.652 24.742,19.657 0.408,1.782 0.612,3.564 0.612,5.309 0,0.37 0,0.761 -0.019,1.132 C -2.691,-3.304 -1.187,-1.763 0,0"
         style="fill:#418c44;fill-opacity:1;fill-rule:evenodd;stroke:none"
         transform="matrix(0.35277776,0,0,-0.35277776,91.483093,34.864591)"
         clip-path="url(#clipPath39)" /><path
         id="path40"
         d="m 0,0 c -23.017,0 -41.742,18.726 -41.742,41.741 0,23.016 18.725,41.741 41.742,41.741 2.823,0 5.646,-0.284 8.386,-0.842 1.502,-0.306 3.009,-0.702 4.477,-1.177 0.738,-0.238 1.142,-1.028 0.903,-1.767 C 13.528,78.96 12.74,78.553 11.999,78.794 10.631,79.236 9.227,79.604 7.825,79.89 5.268,80.411 2.636,80.677 0,80.677 c -21.469,0 -38.936,-17.466 -38.936,-38.936 0,-21.469 17.467,-38.934 38.936,-38.934 21.47,0 38.936,17.465 38.936,38.934 0,6.392 -1.582,12.728 -4.575,18.324 -0.365,0.684 -0.106,1.535 0.577,1.9 0.679,0.363 1.533,0.108 1.899,-0.576 3.208,-6.003 4.904,-12.797 4.904,-19.648 C 41.741,18.726 23.016,0 0,0"
         style="fill:#418c44;fill-opacity:1;fill-rule:nonzero;stroke:none"
         transform="matrix(0.35277776,0,0,-0.35277776,83.819138,54.641108)"
         clip-path="url(#clipPath41)" /><path
         id="path42"
         d="m 0,0 c -0.355,0 -0.711,0.135 -0.983,0.403 -0.996,0.98 -2.056,1.914 -3.149,2.78 -0.839,0.664 -1.717,1.302 -2.61,1.896 -0.645,0.43 -0.82,1.301 -0.391,1.945 0.43,0.648 1.301,0.82 1.946,0.392 C -4.23,6.778 -3.289,6.095 -2.391,5.383 -1.219,4.455 -0.084,3.453 0.983,2.403 1.536,1.861 1.544,0.973 1,0.42 0.727,0.141 0.362,0 0,0"
         style="fill:#418c44;fill-opacity:1;fill-rule:nonzero;stroke:none"
         transform="matrix(0.35277776,0,0,-0.35277776,93.794069,30.261908)"
         clip-path="url(#clipPath43)" /></g></g></svg>
